
<svg width="200" height="175" viewBox="0 0 200 175" fill="none" xmlns="http://www.w3.org/2000/svg">
<path d="M52.7927 34.6389C50.233 16.6981 16.531 4.73765 0 1V174H183.975C191.653 168.874 197.839 153.71 199.972 146.769C201.252 114.731 157.845 108.858 135.981 109.926C84.7883 120.178 59.1918 64.0062 52.7927 34.6389Z" fill="#F1CD7A"/>
<path d="M50.6221 19.4847L6.95461 30.3722C5.3969 30.8011 4.06389 31.8129 3.23174 33.1978C2.3996 34.5827 2.13209 36.2347 2.48465 37.8114L15.3513 89.4166C15.7802 90.9743 16.792 92.3073 18.1769 93.1395C19.5618 93.9716 21.2138 94.2391 22.7905 93.8866L66.458 82.999C68.0157 82.5701 69.3487 81.5583 70.1809 80.1734C71.013 78.7885 71.2805 77.1365 70.928 75.5598L58.0613 23.9546C57.6324 22.3969 56.6207 21.0639 55.2357 20.2317C53.8508 19.3996 52.1988 19.1321 50.6221 19.4847V19.4847ZM30.3406 81.8863C30.4151 82.3052 30.3354 82.7369 30.1162 83.1016C29.8971 83.4663 29.5534 83.7393 29.1485 83.8702L24.3846 85.058C23.9657 85.1325 23.534 85.0528 23.1693 84.8337C22.8046 84.6145 22.5316 84.2708 22.4007 83.8659L21.2143 79.1074C21.1398 78.6885 21.2195 78.2568 21.4386 77.8921C21.6577 77.5274 22.0015 77.2544 22.4063 77.1235L27.1702 75.9357C27.5891 75.8612 28.0208 75.9409 28.3855 76.16C28.7502 76.3791 29.0232 76.7229 29.1541 77.1277L30.3406 81.8863ZM26.3813 66.0066C26.4558 66.4255 26.3761 66.8572 26.157 67.2219C25.9379 67.5866 25.5941 67.8596 25.1893 67.9905L20.4254 69.1783C20.0065 69.2528 19.5748 69.1731 19.2101 68.954C18.8454 68.7349 18.5724 68.3911 18.4415 67.9863L17.254 63.2234C17.1795 62.8045 17.2592 62.3728 17.4783 62.0081C17.6974 61.6434 18.0412 61.3704 18.446 61.2395L23.2099 60.0518C23.6288 59.9773 24.0605 60.057 24.4252 60.2761C24.7899 60.4952 25.0629 60.839 25.1938 61.2438L26.3813 66.0066ZM46.2202 77.9271C46.2947 78.3459 46.215 78.7776 45.9959 79.1423C45.7768 79.507 45.433 79.7801 45.0282 79.9109L40.2632 81.099C39.8438 81.1747 39.4112 81.0957 39.0456 80.8767C38.68 80.6577 38.4062 80.3135 38.2751 79.908L37.0886 75.1495C37.0141 74.7306 37.0938 74.2989 37.3129 73.9342C37.5321 73.5695 37.8758 73.2964 38.2807 73.1656L43.0446 71.9778C43.464 71.9021 43.8966 71.9811 44.2622 72.2001C44.6278 72.4191 44.9016 72.7633 45.0327 73.1688L46.2202 77.9271ZM42.261 62.0474C42.3355 62.4663 42.2558 62.898 42.0367 63.2627C41.8175 63.6274 41.4738 63.9004 41.0689 64.0313L36.304 65.2193C35.8848 65.295 35.4523 65.2161 35.0868 64.9973C34.7213 64.7785 34.4474 64.4347 34.3161 64.0294L33.1283 59.2655C33.0538 58.8466 33.1335 58.4149 33.3526 58.0502C33.5718 57.6855 33.9155 57.4125 34.3203 57.2816L39.0842 56.0939C39.5031 56.0194 39.9348 56.099 40.2995 56.3182C40.6642 56.5373 40.9373 56.8811 41.0681 57.2859L42.261 62.0474ZM62.0999 73.9678C62.1744 74.3867 62.0947 74.8184 61.8756 75.1831C61.6565 75.5478 61.3127 75.8208 60.9079 75.9517L56.1429 77.1397C55.724 77.2142 55.2923 77.1346 54.9276 76.9154C54.5629 76.6963 54.2899 76.3525 54.159 75.9477L49.0122 55.3052C48.9377 54.8863 49.0174 54.4546 49.2366 54.0899C49.4557 53.7252 49.7995 53.4522 50.2043 53.3213L54.9682 52.1335C55.3871 52.059 55.8188 52.1387 56.1835 52.3579C56.5482 52.577 56.8212 52.9207 56.9521 53.3256L62.0988 73.9681L62.0999 73.9678ZM54.1817 42.2096C54.255 42.6281 54.1745 43.0591 53.955 43.4229C53.7356 43.7868 53.3919 44.059 52.9875 44.1894L16.4653 53.2954C16.0464 53.3699 15.6147 53.2902 15.25 53.0711C14.8854 52.852 14.6123 52.5082 14.4814 52.1034L11.3154 39.405C11.2409 38.9861 11.3206 38.5544 11.5397 38.1897C11.7588 37.825 12.1026 37.552 12.5074 37.4211L49.0296 28.3151C49.4485 28.2406 49.8802 28.3203 50.2449 28.5394C50.6096 28.7586 50.8826 29.1023 51.0135 29.5072L54.1817 42.2096Z" fill="#4FA0D2"/>
<path d="M158.989 78.5278L152.417 85.1896C152.258 85.351 152.069 85.4791 151.861 85.5665C151.653 85.6539 151.43 85.6988 151.205 85.6988C150.98 85.6988 150.757 85.6539 150.549 85.5665C150.341 85.4791 150.152 85.351 149.993 85.1896L134.165 69.1459C134.006 68.9846 133.88 68.7931 133.794 68.5823C133.707 68.3715 133.663 68.1455 133.663 67.9173C133.663 67.6892 133.707 67.4632 133.794 67.2524C133.88 67.0416 134.006 66.8501 134.165 66.6888L140.737 60.0271C142.023 58.7289 143.764 58 145.578 58C147.393 58 149.134 58.7289 150.419 60.0271L158.989 68.714C159.627 69.3575 160.132 70.1222 160.477 70.9642C160.822 71.8063 161 72.7091 161 73.6209C161 74.5327 160.822 75.4355 160.477 76.2776C160.132 77.1196 159.627 77.8843 158.989 78.5278V78.5278ZM128.518 72.4146L91.073 110.369L88.051 127.93C87.9565 128.479 87.9937 129.043 88.1595 129.574C88.3253 130.106 88.6148 130.589 89.0035 130.983C89.3923 131.377 89.8688 131.67 90.393 131.838C90.9171 132.006 91.4735 132.044 92.0151 131.948L109.339 128.865L146.784 90.9153C146.943 90.7541 147.069 90.5626 147.156 90.3518C147.242 90.141 147.286 89.915 147.286 89.6868C147.286 89.4586 147.242 89.2327 147.156 89.0219C147.069 88.8111 146.943 88.6195 146.784 88.4583L130.956 72.4146C130.632 72.0882 130.194 71.905 129.737 71.905C129.28 71.905 128.842 72.0882 128.518 72.4146V72.4146ZM105.689 107.117C105.503 106.929 105.355 106.706 105.254 106.461C105.153 106.215 105.101 105.952 105.101 105.686C105.101 105.419 105.153 105.156 105.254 104.91C105.355 104.665 105.503 104.442 105.689 104.254L127.648 81.9975C127.831 81.8005 128.052 81.6427 128.296 81.5336C128.541 81.4245 128.804 81.3662 129.071 81.3622C129.339 81.3583 129.604 81.4087 129.851 81.5105C130.099 81.6123 130.324 81.7634 130.513 81.9549C130.702 82.1463 130.851 82.3743 130.951 82.6253C131.052 82.8762 131.101 83.145 131.097 83.4158C131.093 83.6866 131.036 83.9538 130.928 84.2016C130.821 84.4495 130.665 84.6729 130.471 84.8587L108.512 107.117C108.327 107.306 108.107 107.456 107.865 107.558C107.623 107.66 107.363 107.713 107.1 107.713C106.838 107.713 106.578 107.66 106.335 107.558C106.093 107.456 105.873 107.306 105.688 107.117H105.689ZM100.541 119.272H107.385V124.518L98.1841 126.152L93.7545 121.657L95.3657 112.331H100.541V119.272Z" fill="#4FA0D2"/>
<path d="M17 132C21.9703 132 26 136.477 26 142C26 147.523 21.9703 152 17 152C12.0297 152 8 147.523 8 142C8 136.477 12.0297 132 17 132Z" fill="#4FA0D2"/>
<path d="M37 115C37.8429 115.055 38.6309 115.453 39.192 116.109C39.7531 116.764 40.0418 117.624 39.9951 118.5C40.0418 119.376 39.7531 120.236 39.192 120.891C38.6309 121.547 37.8429 121.945 37 122C36.1571 121.945 35.3691 121.547 34.808 120.891C34.2469 120.236 33.9582 119.376 34.0049 118.5C33.9582 117.624 34.2469 116.764 34.808 116.109C35.3691 115.453 36.1571 115.055 37 115Z" fill="#4FA0D2"/>
<path d="M170.5 132L185 155H156L170.5 132Z" fill="#4FA0D2"/>
<path d="M4 112.399C46.7468 157.703 112.206 137.931 47.2757 153.385C-17.6543 168.839 72.9057 173.18 72.9057 173.18" stroke="white" stroke-width="1.0002"/>
<path d="M146.199 1C45.2374 21.8 51.0623 1 51.0623 1" stroke="white"/>
<path d="M189.861 3C30.9291 39.548 40.0981 3 40.0981 3" stroke="white"/>
</svg>
